<?xml version="1.0" encoding="UTF-8" standalone="no"?>
<!-- Created with Inkscape (http://www.inkscape.org/) -->

<svg
   xmlns:osb="http://www.openswatchbook.org/uri/2009/osb"
   xmlns:dc="http://purl.org/dc/elements/1.1/"
   xmlns:cc="http://creativecommons.org/ns#"
   xmlns:rdf="http://www.w3.org/1999/02/22-rdf-syntax-ns#"
   xmlns:svg="http://www.w3.org/2000/svg"
   xmlns="http://www.w3.org/2000/svg"
   xmlns:sodipodi="http://sodipodi.sourceforge.net/DTD/sodipodi-0.dtd"
   xmlns:inkscape="http://www.inkscape.org/namespaces/inkscape"
   width="210mm"
   height="297mm"
   viewBox="0 0 744.09448819 1052.3622047"
   id="svg4162"
   version="1.1"
   inkscape:version="0.91 r13725"
   sodipodi:docname="logo2.svg"
   inkscape:export-filename="C:\OpenServer\domains\rsm-i.loc\img\logo_40x40.png"
   inkscape:export-xdpi="5.5752211"
   inkscape:export-ydpi="5.5752211">
  <defs
     id="defs4164">
    <linearGradient
       id="linearGradient4739"
       osb:paint="solid">
      <stop
         style="stop-color:#000000;stop-opacity:1;"
         offset="0"
         id="stop4741" />
    </linearGradient>
  </defs>
  <sodipodi:namedview
     id="base"
     pagecolor="#ffffff"
     bordercolor="#666666"
     borderopacity="1.0"
     inkscape:pageopacity="0.0"
     inkscape:pageshadow="2"
     inkscape:zoom="0.7"
     inkscape:cx="306.44872"
     inkscape:cy="577.94279"
     inkscape:document-units="px"
     inkscape:current-layer="layer1"
     showgrid="false"
     inkscape:window-width="1287"
     inkscape:window-height="745"
     inkscape:window-x="-8"
     inkscape:window-y="-8"
     inkscape:window-maximized="1" />
  <metadata
     id="metadata4167">
    <rdf:RDF>
      <cc:Work
         rdf:about="">
        <dc:format>image/svg+xml</dc:format>
        <dc:type
           rdf:resource="http://purl.org/dc/dcmitype/StillImage" />
        <dc:title></dc:title>
      </cc:Work>
    </rdf:RDF>
  </metadata>
  <g
     inkscape:label="Layer 1"
     inkscape:groupmode="layer"
     id="layer1">
    <g
       id="g6331">
      <g
         id="g4753">
        <ellipse
           style="opacity:1;fill:none;fill-rule:evenodd;stroke:none;stroke-width:100;stroke-miterlimit:4;stroke-dasharray:none;stroke-opacity:0"
           id="path3344"
           cx="331.42862"
           cy="520.93365"
           rx="321.42859"
           ry="322.85715" />
        <path
           style="opacity:1;fill:none"
           d="m 537.15985,761.01647 c -4.77485,-14.88817 -7.90563,-18.96991 -20.52003,-26.75293 -12.96033,-7.99648 -27.96864,-23.6622 -39.18493,-40.90134 -2.81165,-4.32143 -4.27613,-7.85714 -3.2544,-7.85714 1.02173,0 0.48151,-2.57143 -1.20049,-5.71429 -1.68201,-3.14286 -4.6201,-5.72554 -6.5291,-5.73929 -1.909,-0.0143 -8.39996,-7.67565 -14.42434,-17.02645 -10.5178,-16.32523 -20.9086,-26.94846 -42.5194,-43.47052 -6.7397,-5.15271 -16.8894,-20.13531 -30.9682,-45.71428 -12.4676,-22.65166 -26.7907,-44.24776 -35.3937,-53.36604 -16.7509,-17.7542 -27.5568,-43.81824 -28.7122,-69.25458 -0.3998,-8.79984 -2.2845,-20.71936 -4.1882,-26.48781 -2.0225,-6.12811 -2.6629,-15.21441 -1.5406,-21.85742 1.7342,-10.26423 2.7438,-11.36933 10.3869,-11.36933 6.995,0 9.2013,1.75955 12.6969,10.12576 2.327,5.56918 3.5391,11.24508 2.6936,12.61312 -0.8455,1.36804 -0.059,2.98004 1.7474,3.58223 2.4685,0.82283 2.4729,2.61163 0.018,7.19905 -4.5982,8.59179 -4.0855,27.95786 0.8485,32.05274 2.2634,1.87849 6.7063,3.0002 9.8731,2.4927 4.1195,-0.66022 19.8995,12.08357 55.4631,44.79154 65.35772,60.10978 83.604,75.71429 88.53229,75.71429 6.61776,0 2.28315,-14.32562 -5.19488,-17.16877 -9.13619,-3.47357 -123.60071,-104.5361 -126.54041,-111.72452 -0.4919,-1.20276 1.107,-5.24121 3.553,-8.97432 3.9872,-6.08519 4.0058,-8.48261 0.18,-23.17076 -2.3469,-9.01081 -4.2954,-19.85628 -4.3299,-24.10104 -0.1061,-13.04144 -11.0151,-32.78071 -25.7928,-46.67051 -12.2221,-11.48773 -16.2346,-13.50709 -30.3408,-15.26955 -25.7935,-3.22268 -29.518,-7.00886 -29.518,-30.00668 0,-22.97524 -6.0489,-33.07428 -21.5524,-35.98273 l -9.8762,-1.85279 0,-19.80149 c 0,-26.75626 2.8833,-29.50329 37.2594,-35.49922 38.1577,-6.65552 94.2068,-4.30709 132.1045,5.5351 52.50819,13.63661 99.66664,40.1164 139.89921,78.55439 50.14752,47.91064 82.33546,106.43795 95.12246,172.96116 5.68846,29.59364 5.82488,90.44702 0.26714,119.13622 -12.45134,64.2736 -45.3838,125.83597 -91.46243,170.9755 -13.85348,13.57115 -16.05525,14.82203 -17.60174,10 l -6e-5,0 z"
           id="path4157"
           inkscape:connector-curvature="0" />
        <path
           style="opacity:1;fill:#dddddd;stroke:none;stroke-width:50;stroke-miterlimit:4;stroke-dasharray:none;fill-opacity:1"
           d="m 168.95646,767.97505 c -12.2928,-8.07006 -32.2177,-24.46292 -44.2776,-36.42857 C 11.063157,618.81891 6.9596571,437.76398 115.34226,319.59573 c 27.7198,-30.22258 66.8572,-57.6016 103.7945,-72.61056 15.775,-6.40997 18.5083,-6.80779 21.2271,-3.08957 2.1388,2.92491 4.0456,3.34283 6.0602,1.32821 2.0146,-2.01461 3.5724,2.65416 4.9509,14.83811 1.876,16.58223 1.5395,18.17945 -5.0047,23.75324 -8.4758,7.21901 -13.3703,21.06772 -13.3703,37.83052 0,11.72934 -0.4544,12.43079 -8.0528,12.43079 -13.4719,0 -36.1938,8.06948 -42.939,15.24938 -5.8162,6.1911 -6.4292,9.96128 -7.0442,43.32715 -0.548,29.73325 0.2618,38.6352 4.3441,47.75332 4.6715,10.43405 4.7139,12.82013 0.6147,34.5816 -2.4216,12.85585 -5.6128,25.60682 -7.0914,28.3355 -1.4787,2.72868 -2.6885,8.35039 -2.6885,12.4927 0,16.37855 7.8229,0.56657 14.2828,-28.86911 4.3913,-20.01004 7.8702,-30.01339 10.4376,-30.01339 2.1181,0 3.851,-2.53108 3.851,-5.62462 0,-3.82582 1.3706,-5.09866 4.2857,-3.98003 5.9874,2.29758 5.5177,-5.50827 -1.7189,-28.56291 -3.7995,-12.10479 -5.2856,-21.9869 -4.0468,-26.90974 l 1.9578,-7.77985 6.5638,7.62095 c 9.6998,11.26214 16.9551,36.87497 14.8324,52.36181 -1.0239,7.47018 -0.3982,15.8444 1.4941,19.99769 2.4652,5.41045 2.4053,9.984 -0.2464,18.83487 -1.9263,6.42912 -4.0153,22.82576 -4.6423,36.43699 -0.627,13.61124 -1.9628,29.7035 -2.9684,35.76059 -1.1026,6.64083 0.1995,20.67617 3.2797,35.35406 4.3938,20.93711 4.6301,27.12891 1.6899,44.27483 -3.5187,20.5198 -0.327,63.05471 5.5843,74.42068 1.4482,2.78437 3.404,10.68777 4.3464,17.56314 1.3505,9.85331 0.346,14.93362 -4.7434,23.98902 -3.7707,6.70909 -5.8025,13.99055 -4.884,17.50306 1.263,4.82971 -0.4167,6.846 -8.5258,10.23423 -14.9278,6.23723 -17.6076,5.57051 -42.0159,-10.45334 z"
           id="path4159"
           inkscape:connector-curvature="0" />
        <path
           style="opacity:1;fill:#dddddd;stroke:none;stroke-width:50;stroke-miterlimit:4;stroke-dasharray:none;fill-opacity:1"
           d="m 279.65836,812.70119 c -19.8443,-3.60053 -61.4242,-16.30037 -68.9076,-21.04657 -2.235,-1.41753 8.4129,-4.375 27.1429,-7.53895 38.0812,-6.43287 47.4203,-9.60624 29.0119,-9.85809 l -13.2372,-0.18111 4.2337,-12.14285 c 4.8741,-13.9798 5.2884,-29.85174 1.1222,-42.99151 -1.5959,-5.03324 -3.5207,-25.86563 -4.2775,-46.2942 -1.4899,-40.22089 3.154,-76.07821 12.581,-97.14285 2.813,-6.28572 6.4982,-14.96429 8.1893,-19.28572 5.651,-14.44058 5.2549,-14.71392 79.129,54.60152 11.1197,10.43345 25.2625,23.63071 31.4286,29.32725 6.1661,5.69653 17.0235,16.6251 24.1277,24.28571 7.1041,7.66061 16.747,17.36483 21.4285,21.56493 13.3774,12.00162 17.3024,17.07534 25.0363,32.36345 4.68012,9.25163 12.55764,18.31297 22.35483,25.71427 l 15.12812,11.42858 -10.3576,0.87379 c -9.88353,0.8338 -19.21284,7.37254 -15.63036,10.95503 0.9299,0.9299 5.85311,2.54202 10.94047,3.5825 l 9.24975,1.89177 -19.81905,10.32389 c -57.45826,29.93044 -126.93566,40.80742 -188.87496,29.56916 z"
           id="path4161"
           inkscape:connector-curvature="0" />
        <path
           style="opacity:0.8;fill:#428bca;stroke:none;stroke-width:50;stroke-miterlimit:4;stroke-dasharray:none;fill-opacity:1"
           d="m 524.42857,736.8707 c 0,-1.60605 -5.9438,-6.6895 -13.20845,-11.29662 C 498.4603,717.48206 473,690.63468 473,685.27177 c 0,-8.35909 -4.80218,-16.90957 -9.49685,-16.90957 -1.96983,0 -7.84099,-7.02817 -13.04709,-15.61817 -9.3713,-15.46257 -28.273,-35.08097 -39.6825,-41.18715 -3.2494,-1.73902 -15.3278,-20.78311 -26.8408,-42.32017 -13.8379,-25.88608 -25.5326,-43.76081 -34.5042,-52.73752 -7.4643,-7.46854 -13.5714,-16.10524 -13.5714,-19.19265 0,-3.0874 -2.6117,-11.70627 -5.8038,-19.15303 -3.192,-7.44677 -5.5462,-18.1605 -5.2314,-23.80831 0.3147,-5.6478 -1.1147,-16.78821 -3.1766,-24.75646 -4.594,-17.75411 -1.3289,-30.76629 8.0665,-32.14735 4.8799,-0.71732 7.2183,1.36252 10.5814,9.41148 2.3744,5.68276 3.6253,11.45159 2.7798,12.81963 -0.8455,1.36804 -0.059,2.98004 1.7474,3.58223 2.4685,0.82283 2.4729,2.61163 0.018,7.19905 -4.2761,7.99007 -4.1837,24.42005 0.1618,28.76555 1.8857,1.88572 6.5725,3.42857 10.415,3.42857 5.0483,0 16.5982,9.31327 41.6338,33.57143 65.30124,63.27335 97.13647,89.65538 91.98363,76.2273 -0.96067,-2.50349 -1.74668,-6.35795 -1.74668,-8.56549 0,-2.20751 -4.17857,-5.81708 -9.28571,-8.02123 -5.10715,-2.20414 -32.74194,-26.06472 -61.41054,-53.02349 l -52.1249,-49.01595 4.604,-7.02653 c 3.8472,-5.87161 4.079,-9.11101 1.4105,-19.70862 -1.7563,-6.97516 -3.1934,-16.40741 -3.1934,-20.96055 0,-12.79445 -16.082,-42.15656 -28.4588,-51.95911 -7.2338,-5.72931 -15.6976,-9.32771 -24.8295,-10.5563 -23.1956,-3.12071 -26.7117,-6.98579 -26.7117,-29.36345 0,-16.20078 -0.9966,-20.10366 -6.4285,-25.17388 -3.5357,-3.30029 -9.9643,-6.87808 -14.2857,-7.95064 -7.4229,-1.84231 -7.8572,-2.84912 -7.8572,-18.21361 0,-26.18676 3.5881,-30.81112 26.9675,-34.75587 29.2643,-4.93769 91.7169,-1.91484 120.1754,5.81677 27.6893,7.52266 68.48926,26.42462 93.20743,43.18155 10.02161,6.79385 28.12235,22.24058 40.22386,34.32606 89.66306,89.54439 112.54966,228.27511 56.18075,340.54831 -14.21703,28.31686 -23.70569,42.41677 -45.89272,68.19546 -15.3065,17.78433 -25.14791,24.30039 -25.14791,16.65064 z"
           id="path4163"
           inkscape:connector-curvature="0" />
      </g>
      <circle
         r="298.09009"
         cy="521.14819"
         cx="332.07202"
         id="path6321"
         style="opacity:1;fill:none;fill-opacity:1;stroke:none;stroke-width:3.8198483;stroke-linecap:round;stroke-linejoin:round;stroke-miterlimit:4;stroke-dasharray:none;stroke-opacity:1" />
      <path
         inkscape:connector-curvature="0"
         id="path6325"
         d="m 201.60289,786.40024 -8.4957,-4.27155 6.15583,-0.44528 c 4.36047,-0.31541 8.17756,-1.46001 13.08784,-3.92455 l 6.93201,-3.47929 0.60378,-7.57615 c 0.48825,-6.12652 1.42997,-9.2664 4.92174,-16.40993 2.37488,-4.85859 4.55012,-10.89349 4.83387,-13.41087 0.699,-6.2015 -1.34302,-18.11214 -4.83117,-28.17912 -1.58451,-4.57297 -3.66252,-13.50842 -4.6178,-19.85654 -2.22825,-14.80737 -2.50254,-45.76617 -0.50052,-56.49382 2.0706,-11.09521 1.63843,-23.8048 -1.32243,-38.89088 -3.87646,-19.75115 -4.93445,-31.37126 -3.69924,-40.62919 0.57665,-4.32197 1.73756,-17.83142 2.57981,-30.02098 1.44859,-20.96477 3.26944,-35.04204 5.56004,-42.98532 1.44903,-5.02493 1.25931,-11.18943 -0.49762,-16.16911 -1.09282,-3.09739 -1.51523,-8.58797 -1.51523,-19.69545 0,-12.91224 -0.39029,-16.9394 -2.41533,-24.92236 -3.00966,-11.86443 -7.4079,-20.9942 -14.0957,-29.25954 l -5.17477,-6.39541 -1.47178,6.37072 c -1.79063,7.75089 -0.86201,14.38897 4.59242,32.82838 2.1755,7.35455 3.69077,14.71659 3.77585,18.34523 0.14162,6.04049 0.13228,6.06091 -2.7731,6.06091 -3.08518,0 -4.15992,1.23395 -5.15185,5.91498 -0.35168,1.6596 -1.43356,3.09955 -2.54768,3.3909 -3.05509,0.79893 -5.61179,7.46722 -10.5686,27.56469 -5.41325,21.94808 -9.06401,33.42887 -11.63901,36.60196 l -1.85749,2.28892 -0.71778,-2.84955 c -0.98246,-3.90032 -0.004,-10.11387 3.0054,-19.07753 2.59421,-7.72804 8.00248,-33.2137 9.19029,-43.30795 0.55082,-4.68093 0.2006,-6.90629 -2.06663,-13.13198 -5.44881,-14.96212 -5.75449,-17.96237 -5.24058,-51.4376 0.49945,-32.53337 0.98442,-36.31507 5.40894,-42.17782 5.10671,-6.76669 30.61359,-16.41102 43.40311,-16.41102 3.213,0 5.85227,-0.56092 6.71941,-1.42806 0.96043,-0.96043 1.63752,-5.01251 2.06773,-12.37437 1.08018,-18.48444 4.06812,-26.64577 13.51887,-36.92582 l 5.64628,-6.14175 -0.62499,-11.71857 c -0.8753,-16.41189 -2.89843,-23.07336 -6.18031,-20.34964 -1.29209,1.07234 -2.1177,0.78262 -5.0123,-1.75887 -3.27629,-2.87662 -3.3458,-3.06872 -1.27384,-3.52007 1.20536,-0.26257 6.11168,-1.64092 10.90293,-3.06299 4.79125,-1.42208 10.45824,-2.91331 12.59332,-3.31385 l 3.88197,-0.72826 -2.65753,3.15829 c -4.42415,5.2578 -5.31163,9.5125 -5.33501,25.57666 -0.025,17.17153 0.17721,17.62842 9.03683,20.42117 5.9281,1.86867 12.71596,6.50859 15.99484,10.93348 1.66733,2.25006 2.14724,5.15925 2.83289,17.17259 1.06791,18.71057 1.5827,21.4917 4.65385,25.14154 3.69768,4.39446 6.63031,5.59041 19.53969,7.96844 15.762,2.90351 23.87997,6.91109 32.38894,15.98937 12.8634,13.72403 22.1655,33.12115 24.06868,50.18897 0.61725,5.53562 1.79109,12.94862 2.60852,16.47333 2.42937,10.47523 2.00058,15.01808 -2.05188,21.73862 -1.94312,3.22242 -3.53294,6.00576 -3.53294,6.18516 0,0.52486 70.28534,66.13839 80.81221,75.4407 16.68553,14.74455 26.5513,22.72398 33.85333,27.38052 l 7.08429,4.51769 1.56748,6.78201 c 0.8621,3.7301 1.24485,6.9814 0.85053,7.2251 -0.39431,0.2437 -3.37847,-1.33444 -6.63146,-3.50698 -11.36289,-7.58882 -30.34585,-24.46955 -71.06936,-63.19893 -43.94753,-41.79553 -48.25612,-45.33794 -56.5278,-46.47558 -2.77937,-0.38226 -6.18744,-1.58706 -7.57348,-2.67732 -5.22357,-4.10886 -5.86509,-16.93333 -1.42717,-28.53032 2.25515,-5.89308 2.25764,-5.9576 0.29149,-7.5739 -1.31595,-1.08179 -2.02344,-2.98941 -2.10313,-5.67078 -0.15589,-5.24523 -4.02418,-15.39263 -7.00362,-18.37208 -4.36576,-4.36576 -11.43548,-2.36923 -14.78889,4.17647 -2.78817,5.4424 -2.77177,15.0188 0.0494,28.84282 1.19051,5.83363 2.57734,15.85932 3.08184,22.2793 0.76196,9.69636 1.69594,13.97215 5.51626,25.25381 2.52946,7.46962 4.91345,15.17211 5.29776,17.11666 0.88837,4.49488 4.93412,10.37525 13.81986,20.08673 9.28279,10.14543 19.15717,25.22337 33.95454,51.84781 13.03475,23.45305 21.64003,37.28559 25.50357,40.99573 1.32794,1.27521 5.8237,4.94172 9.99058,8.14779 10.01105,7.70269 20.7087,19.43879 29.5594,32.4288 7.92928,11.63765 13.46379,18.21907 15.32095,18.21907 3.43596,0 8.65775,9.16941 8.65775,15.20294 0,6.3779 20.74137,28.6825 39.7553,42.75157 8.27052,6.11965 11.68309,9.27189 12.17971,11.25057 0.60555,2.41269 1.05462,2.67595 3.67187,2.1525 1.64009,-0.32802 2.98196,-0.40608 2.98196,-0.17348 0,1.05767 -21.81481,18.17585 -31.8198,24.96916 -10.89827,7.39982 -11.19718,7.52915 -15.5632,6.73408 -6.65282,-1.21153 -15.06831,-3.79707 -15.7034,-4.82466 -2.25748,-3.65267 6.44901,-8.8259 17.13386,-10.1806 4.34256,-0.55059 8.05488,-1.16037 8.2496,-1.35509 0.19472,-0.19473 -3.94947,-3.63145 -9.20931,-7.63718 -13.00672,-9.90551 -22.28218,-20.10052 -27.75447,-30.50602 -2.45363,-4.66552 -5.7253,-10.34812 -7.27038,-12.628 -7.34932,-10.84448 -112.25673,-112.53029 -146.86245,-142.35246 -14.59391,-12.5766 -20.6966,-15.76161 -23.56891,-12.3007 -0.59832,0.72093 -4.25731,8.86663 -8.13108,18.10156 -12.52324,29.85492 -15.66926,48.08362 -15.65253,90.69428 0.0117,29.79999 1.215,46.1213 4.57262,62.0221 3.02403,14.32096 2.32598,28.79396 -2.03188,42.12809 -1.74376,5.33551 -3.17046,10.20675 -3.17046,10.82497 0,0.73779 3.73143,1.22256 10.85914,1.41075 9.60208,0.25352 10.53394,0.43137 8.0499,1.5363 -1.54507,0.68728 -8.81817,2.40342 -16.16243,3.81365 -7.34427,1.41022 -19.48989,3.74144 -26.99027,5.18047 -7.50039,1.43903 -15.02168,3.18386 -16.71398,3.87739 -2.83588,1.16219 -3.74246,0.92634 -11.57261,-3.01058 z"
         style="opacity:1;fill:#ffffff;fill-opacity:1;stroke:none;stroke-width:5.05076265;stroke-linecap:round;stroke-linejoin:round;stroke-miterlimit:4;stroke-dasharray:none;stroke-opacity:1" />
      <path
         inkscape:connector-curvature="0"
         id="path6327"
         d="m 201.58227,786.32631 -8.56336,-4.36913 4.23535,-0.0507 c 5.0466,-0.0604 17.40759,-4.44511 20.40568,-7.23827 1.68033,-1.56546 2.13061,-3.19619 2.14034,-7.75156 0.01,-4.42546 0.85584,-7.65108 3.6342,-13.85024 6.2555,-13.95748 6.87313,-16.87719 5.55836,-26.27563 -0.63414,-4.53308 -2.53665,-12.51078 -4.2278,-17.72827 -5.84648,-18.0374 -8.39724,-48.3593 -5.85816,-69.6383 2.21439,-18.55792 1.78067,-33.515 -1.46984,-50.68778 -3.59446,-18.9899 -3.71926,-27.55165 -0.89119,-61.13856 2.21738,-26.33427 3.63465,-37.37989 6.42209,-50.05093 1.03753,-4.71642 1.03172,-6.61596 -0.0309,-10.10153 -0.71979,-2.36105 -1.66899,-12.92962 -2.10933,-23.48571 -0.85489,-20.49405 -2.94574,-30.73183 -8.52488,-41.74172 -2.79505,-5.51577 -11.47986,-17.35221 -12.73193,-17.35221 -1.47792,0 -3.17715,10.84719 -2.48805,15.88271 0.36319,2.65399 2.49636,11.41667 4.74038,19.47263 2.45299,8.80614 4.12941,17.06421 4.20385,20.70813 l 0.12382,6.06091 -3.26085,0.31489 c -2.84605,0.27483 -3.39653,0.81876 -4.32746,4.27597 -0.58663,2.1786 -2.00306,4.46226 -3.14762,5.07481 -3.08963,1.65352 -5.29447,7.54617 -10.36817,27.70998 -6.72277,26.71749 -11.23196,38.9295 -13.79054,37.34822 -1.46198,-0.90355 -1.15759,-8.44823 0.59113,-14.65218 4.69638,-16.6614 5.71329,-20.78921 8.07987,-32.79757 3.64082,-18.47401 3.5738,-22.29116 -0.59415,-33.84011 l -3.46331,-9.59645 -0.3272,-27.27412 c -0.50354,-41.9719 0.90688,-50.29568 9.55521,-56.39159 8.96993,-6.32259 28.54709,-12.78104 38.79023,-12.79677 7.52906,-0.0116 8.18893,-1.03344 9.19819,-14.24395 1.41306,-18.49617 4.32821,-26.32594 13.52696,-36.33188 5.33623,-5.80449 5.49965,-6.15588 5.49965,-11.8259 0,-7.75468 -1.86087,-22.29308 -3.16546,-24.73072 -0.70941,-1.32555 -1.73889,-1.77846 -3.23099,-1.42144 -1.46253,0.34994 -3.28793,-0.40634 -5.49602,-2.27708 l -3.30617,-2.80105 10.88232,-3.11586 c 5.98527,-1.71372 12.68548,-3.44561 14.88934,-3.84865 l 4.00703,-0.7328 -2.70552,3.21532 c -3.73897,4.44352 -4.77766,8.80455 -5.44241,22.85056 -0.81061,17.12812 -0.002,19.15274 9.12667,22.83906 7.27394,2.93749 12.73545,6.75157 16.07741,11.22776 1.62544,2.1771 2.1197,5.23973 2.84342,17.6192 0.4818,8.24123 1.37248,16.80232 1.9793,19.02466 2.23716,8.19306 7.1412,11.00526 24.65531,14.13846 16.81762,3.0086 27.75768,10.30544 37.86822,25.25749 10.07462,14.89893 14.44491,25.8618 16.18456,40.59893 0.64332,5.44978 1.80676,12.63611 2.5854,15.96961 2.42233,10.37029 1.94252,15.45606 -2.08994,22.15263 -1.94455,3.22923 -3.53554,5.96206 -3.53554,6.07294 0,0.39688 69.39968,65.09865 79.29698,73.92909 15.92703,14.21021 28.61887,24.52346 36.0084,29.26004 6.00738,3.85063 6.89172,4.82341 7.45263,8.19801 0.35005,2.10592 1.0288,5.06896 1.50834,6.58455 0.47955,1.51557 0.51098,2.97864 0.0699,3.25127 -3.15615,1.95062 -29.85426,-20.7978 -76.35396,-65.05824 -43.43627,-41.34453 -48.46338,-45.57337 -56.50877,-47.53555 -7.60521,-1.85482 -8.93825,-2.50077 -11.06826,-5.36335 -3.09381,-4.15783 -2.89969,-17.96895 0.37061,-26.36842 2.29334,-5.89023 2.29974,-6.01482 0.38902,-7.57614 -1.26873,-1.03673 -1.99682,-3.00653 -2.09876,-5.67806 -0.20436,-5.35535 -3.73968,-14.68628 -6.82621,-18.0167 -4.51874,-4.87581 -12.20197,-2.32781 -15.29377,5.07189 -1.96844,4.71116 -1.72758,16.60096 0.56182,27.73365 1.07505,5.22766 2.41682,15.0722 2.9817,21.87676 0.85757,10.33049 1.77486,14.58083 5.55917,25.75889 2.49267,7.36283 4.81281,14.81529 5.15587,16.56102 0.87355,4.44532 5.07106,10.64572 13.57977,20.05945 9.67525,10.70436 19.57509,25.73741 33.92644,51.51778 17.56441,31.55221 23.55623,40.12361 33.11964,47.37821 10.67337,8.09661 23.35335,21.79281 32.17752,34.75637 8.62342,12.66865 13.19466,17.9435 16.27367,18.77854 3.07319,0.83345 5.52617,4.53396 6.87225,10.36729 2.03902,8.8363 5.25677,13.75018 16.81035,25.67138 11.03883,11.39007 15.1612,14.98683 28.42784,24.80327 3.91595,2.89753 6.82815,5.91028 7.45714,7.71462 0.89801,2.57602 1.4082,2.88522 3.92895,2.38107 1.59331,-0.31867 2.89693,-0.38907 2.89693,-0.15647 0,1.04928 -21.79061,18.16123 -31.8198,24.9878 l -11.11168,7.56338 -6.60351,-1.25662 c -8.29158,-1.57784 -14.10467,-3.96866 -14.10467,-5.80099 0,-3.57002 7.62761,-7.42857 17.62391,-8.91534 4.19645,-0.62414 7.6206,-1.42047 7.60923,-1.76962 -0.0114,-0.34915 -3.87277,-3.53416 -8.5809,-7.0778 -10.22653,-7.69713 -21.44522,-19.25032 -25.27184,-26.02537 C 447.8167,702.41768 448.51468,703.26 417.8984,672.42209 389.34572,643.66271 341.97805,598.33866 312.72198,571.78338 289.98081,551.14157 281.7769,545.8957 278.73741,550.05243 c -2.12289,2.90323 -13.10489,29.58423 -15.99157,38.85185 -5.46409,17.54237 -6.72863,28.23121 -7.30111,61.71474 -0.57081,33.38525 0.44464,51.89242 3.77403,68.78411 3.38879,17.19303 2.25708,33.01611 -3.52075,49.22564 -0.87255,2.44789 -1.34347,4.69369 -1.0465,4.99066 0.29697,0.29697 5.18844,0.8169 10.86992,1.15541 15.01535,0.89462 12.31388,1.76695 -31.5441,10.18586 -9.14115,1.75473 -18.24284,3.76289 -20.22598,4.46258 -3.41654,1.20543 -4.05498,1.04294 -12.16908,-3.09697 z"
         style="opacity:1;fill:#ffffff;fill-opacity:1;stroke:none;stroke-width:5;stroke-linecap:round;stroke-linejoin:round;stroke-miterlimit:4;stroke-dasharray:none;stroke-opacity:1" />
      <path
         inkscape:connector-curvature="0"
         id="path6329"
         d="m 201.6854,786.44171 -8.49087,-4.26911 5.77678,-0.67896 c 6.09952,-0.71687 17.9217,-5.50021 19.39196,-7.84611 0.47854,-0.76355 1.14509,-4.34296 1.48122,-7.95426 0.40551,-4.3566 1.83833,-9.28523 4.25815,-14.64721 2.00585,-4.44467 4.10689,-10.12678 4.66899,-12.62691 1.33406,-5.93368 -0.11284,-16.37923 -4.03282,-29.11389 -6.40698,-20.81411 -8.43014,-48.38388 -5.49875,-74.93182 1.95422,-17.69813 1.68679,-23.35499 -2.17279,-45.96194 -3.12985,-18.33262 -3.32087,-29.24866 -0.99871,-57.07362 2.32515,-27.86086 3.4322,-37.05719 5.89609,-48.97948 1.98077,-9.58457 2.00522,-10.46775 0.48944,-17.67767 -0.87752,-4.17398 -1.80928,-14.63487 -2.07058,-23.24642 -0.52875,-17.42636 -2.44929,-26.94877 -7.62054,-37.78416 -4.21761,-8.83719 -14.17027,-21.53631 -14.19407,-18.11095 -0.003,0.46298 -0.42738,3.41513 -0.94258,6.56033 -1.03735,6.33286 0.0448,12.69806 5.89659,34.6818 1.81269,6.8099 3.09435,13.88814 2.92654,16.16244 -0.25456,3.45007 -0.67071,4.09785 -2.82394,4.39571 -3.31182,0.45811 -5.05076,1.96508 -5.05076,4.37699 0,1.07444 -1.34529,3.18228 -2.98954,4.68406 -3.71058,3.38911 -4.8479,6.57506 -11.75126,32.91873 -5.23261,19.96797 -9.77198,32.17501 -12.02825,32.34573 -2.30487,0.17441 -1.59803,-9.81184 1.41286,-19.96101 4.12366,-13.90015 9.1742,-39.29897 9.18497,-46.19058 0.006,-3.83139 -1.03563,-8.49102 -3.27422,-14.64721 l -3.283,-9.02833 0.0112,-34.85027 c 0.0121,-37.9514 0.36185,-40.91483 5.5215,-46.79135 5.29419,-6.02976 25.10119,-14.20938 37.27193,-15.39205 12.03794,-1.16977 12.10781,-1.19789 13.12987,-5.28479 0.51546,-2.06116 1.2122,-7.61139 1.54831,-12.33386 1.08582,-15.25578 4.28905,-23.51707 12.73445,-32.84278 2.74633,-3.03259 5.30458,-6.75393 5.685,-8.26963 0.8062,-3.21218 -1.20447,-24.23851 -2.69197,-28.15094 -0.83083,-2.18524 -1.46428,-2.55604 -3.49565,-2.0462 -1.85235,0.46491 -3.29243,-0.10239 -5.6838,-2.23908 l -3.20287,-2.86177 13.0521,-3.71613 c 17.04846,-4.85395 17.28076,-4.84225 13.39197,0.67482 -2.80061,3.97325 -3.19385,5.51256 -4.13382,16.18139 -1.27777,14.50283 -0.51925,21.87726 2.52968,24.59398 1.21848,1.08572 4.40256,2.77994 7.07575,3.76494 2.67318,0.98499 6.72206,3.21998 8.99751,4.96663 7.66165,5.88112 7.93239,6.62634 9.33096,25.68386 1.79809,24.50136 3.28892,26.38296 24.14218,30.47016 14.34585,2.81176 22.3059,6.48689 30.05103,13.8745 13.02382,12.42262 26.15862,38.28763 26.15862,51.51147 0,1.80811 0.90777,7.96293 2.01725,13.67736 2.87915,14.82914 2.69371,18.08842 -1.45087,25.49961 l -3.47422,6.21251 26.8754,25.19929 c 53.52674,50.18852 72.90385,67.26867 87.45308,77.08638 7.55348,5.09705 7.59442,5.14909 9.01876,11.46687 0.78695,3.49062 1.25089,6.69791 1.03097,7.1273 -0.21992,0.4294 -2.21262,-0.23811 -4.42823,-1.48335 -9.35504,-5.25783 -30.19156,-23.54628 -70.99243,-62.31084 -45.23283,-42.97535 -51.04873,-47.7653 -59.54262,-49.03904 -2.50121,-0.37508 -5.7051,-1.59241 -7.11977,-2.7052 -5.25085,-4.13032 -5.93064,-16.90591 -1.52598,-28.67842 l 2.21572,-5.92204 -2.16037,-1.74935 c -1.48595,-1.20326 -2.16035,-2.8892 -2.16035,-5.40074 0,-5.72131 -3.63406,-14.87163 -7.18693,-18.09616 -2.5512,-2.31544 -3.77566,-2.75767 -6.25981,-2.26084 -9.46452,1.8929 -11.98186,12.97298 -7.82317,34.43376 1.07661,5.55584 2.41262,15.36172 2.96891,21.79085 0.82423,9.52575 1.9571,14.62039 6.12068,27.52535 2.81009,8.70981 5.10925,16.41089 5.10925,17.11351 0,2.04432 6.25352,10.7322 13.62449,18.92818 8.90093,9.8972 18.91335,25.10448 32.92148,50.00255 20.46586,36.37602 23.31919,40.45638 34.02429,48.65582 9.64332,7.3862 22.658,21.30054 30.67878,32.79953 10.39105,14.89713 13.84766,18.95993 17.39041,20.44019 3.73601,1.56101 6.07461,5.60274 7.74294,13.3819 0.69505,3.2409 2.75642,7.21073 5.97431,11.50546 6.75723,9.01849 22.86108,24.419 34.59332,33.08248 5.37338,3.96787 10.39148,8.487 11.15135,10.04251 1.10886,2.26993 1.97193,2.77768 4.37236,2.57229 2.9536,-0.25272 2.92798,-0.19861 -2.05997,4.35153 -6.18415,5.6413 -25.23205,20.1024 -32.94146,25.00902 l -5.66735,3.60695 -6.51909,-1.36397 c -8.39901,-1.7573 -13.96603,-4.10341 -13.96603,-5.88571 0,-3.54699 7.39866,-7.30579 17.79323,-9.03959 l 7.91867,-1.32084 -9.57295,-7.63669 c -12.38135,-9.87705 -21.03242,-19.22124 -26.29068,-28.39705 -2.31721,-4.04361 -5.83208,-9.85215 -7.81083,-12.90786 -6.25246,-9.65548 -65.12794,-67.91327 -122.44864,-121.16399 -30.65845,-28.48157 -42.07274,-37.30942 -46.44595,-35.92142 -2.15342,0.68347 -13.58932,26.77667 -17.65507,40.28344 -5.43546,18.05705 -7.56105,37.88432 -7.59444,70.84003 -0.025,24.67869 1.31898,43.78099 4.14459,58.90812 2.99519,16.03492 2.34414,31.21314 -1.91443,44.63252 -1.67496,5.27804 -2.68932,9.73166 -2.25412,9.89692 0.4352,0.16526 5.27224,0.65063 10.74899,1.07859 9.29274,0.72615 9.75535,0.86376 6.92727,2.06047 -1.66675,0.70528 -15.30381,3.70957 -30.30458,6.67618 -15.00076,2.96661 -28.41397,5.82851 -29.80712,6.35978 -2.09209,0.7978 -4.01096,0.22283 -11.02386,-3.3032 z"
         style="opacity:1;fill:#ffffff;fill-opacity:1;stroke:none;stroke-width:5;stroke-linecap:round;stroke-linejoin:round;stroke-miterlimit:4;stroke-dasharray:none;stroke-opacity:1" />
    </g>
  </g>
</svg>
